<svg width="44" height="22" viewBox="0 0 44 22" fill="none" xmlns="http://www.w3.org/2000/svg">
<path d="M0 11C0 4.92487 4.92487 0 11 0H33C39.0751 0 44 4.92487 44 11V11C44 17.0751 39.0751 22 33 22H11C4.92487 22 0 17.0751 0 11V11Z" fill="#04844B"/>
<path d="M12.2305 7.92773L9.91016 15H8.04102L11.2109 6.46875H12.4004L12.2305 7.92773ZM14.1582 15L11.832 7.92773L11.6445 6.46875H12.8457L16.0332 15H14.1582ZM14.0527 11.8242V13.2012H9.54688V11.8242H14.0527ZM10.7598 4.86328C10.7598 4.64453 10.8145 4.44531 10.9238 4.26562C11.0371 4.08203 11.1914 3.93555 11.3867 3.82617C11.582 3.7168 11.8047 3.66211 12.0547 3.66211C12.4258 3.66211 12.7344 3.78125 12.9805 4.01953C13.2305 4.25391 13.3555 4.53516 13.3555 4.86328C13.3555 5.08203 13.2988 5.28125 13.1855 5.46094C13.0723 5.63672 12.918 5.77734 12.7227 5.88281C12.5273 5.98828 12.3047 6.04102 12.0547 6.04102C11.6836 6.04102 11.375 5.92773 11.1289 5.70117C10.8828 5.4707 10.7598 5.19141 10.7598 4.86328ZM11.4277 4.86328C11.4277 5.03125 11.4844 5.17773 11.5977 5.30273C11.7109 5.42773 11.8633 5.49023 12.0547 5.49023C12.2461 5.49023 12.3984 5.42969 12.5117 5.30859C12.6289 5.18359 12.6875 5.03516 12.6875 4.86328C12.6875 4.6875 12.6289 4.53711 12.5117 4.41211C12.3984 4.2832 12.2461 4.21875 12.0547 4.21875C11.8633 4.21875 11.7109 4.2832 11.5977 4.41211C11.4844 4.53711 11.4277 4.6875 11.4277 4.86328ZM18.2188 9.87891V17.4375H16.5312V8.66016H18.0957L18.2188 9.87891ZM22.2324 11.7598V11.8828C22.2324 12.3438 22.1777 12.7715 22.0684 13.166C21.9629 13.5605 21.8066 13.9043 21.5996 14.1973C21.3926 14.4863 21.1348 14.7129 20.8262 14.877C20.5215 15.0371 20.1699 15.1172 19.7715 15.1172C19.3848 15.1172 19.0488 15.0391 18.7637 14.8828C18.4785 14.7266 18.2383 14.5078 18.043 14.2266C17.8516 13.9414 17.6973 13.6113 17.5801 13.2363C17.4629 12.8613 17.373 12.459 17.3105 12.0293V11.707C17.373 11.2461 17.4629 10.8242 17.5801 10.4414C17.6973 10.0547 17.8516 9.7207 18.043 9.43945C18.2383 9.1543 18.4766 8.93359 18.7578 8.77734C19.043 8.62109 19.377 8.54297 19.7598 8.54297C20.1621 8.54297 20.5156 8.61914 20.8203 8.77148C21.1289 8.92383 21.3867 9.14258 21.5938 9.42773C21.8047 9.71289 21.9629 10.0527 22.0684 10.4473C22.1777 10.8418 22.2324 11.2793 22.2324 11.7598ZM20.5391 11.8828V11.7598C20.5391 11.4902 20.5156 11.2422 20.4688 11.0156C20.4258 10.7852 20.3555 10.584 20.2578 10.4121C20.1641 10.2402 20.0391 10.1074 19.8828 10.0137C19.7305 9.91602 19.5449 9.86719 19.3262 9.86719C19.0957 9.86719 18.8984 9.9043 18.7344 9.97852C18.5742 10.0527 18.4434 10.1602 18.3418 10.3008C18.2402 10.4414 18.1641 10.6094 18.1133 10.8047C18.0625 11 18.0312 11.2207 18.0195 11.4668V12.2812C18.0391 12.5703 18.0938 12.8301 18.1836 13.0605C18.2734 13.2871 18.4121 13.4668 18.5996 13.5996C18.7871 13.7324 19.0332 13.7988 19.3379 13.7988C19.5605 13.7988 19.748 13.75 19.9004 13.6523C20.0527 13.5508 20.1758 13.4121 20.2695 13.2363C20.3672 13.0605 20.4355 12.8574 20.4746 12.627C20.5176 12.3965 20.5391 12.1484 20.5391 11.8828ZM26.1992 15.1172C25.707 15.1172 25.2656 15.0391 24.875 14.8828C24.4844 14.7227 24.1523 14.502 23.8789 14.2207C23.6094 13.9395 23.4023 13.6133 23.2578 13.2422C23.1133 12.8672 23.041 12.4688 23.041 12.0469V11.8125C23.041 11.332 23.1094 10.8926 23.2461 10.4941C23.3828 10.0957 23.5781 9.75 23.832 9.45703C24.0898 9.16406 24.4023 8.93945 24.7695 8.7832C25.1367 8.62305 25.5508 8.54297 26.0117 8.54297C26.4609 8.54297 26.8594 8.61719 27.207 8.76562C27.5547 8.91406 27.8457 9.125 28.0801 9.39844C28.3184 9.67188 28.498 10 28.6191 10.3828C28.7402 10.7617 28.8008 11.1836 28.8008 11.6484V12.3516H23.7617V11.2266H27.1426V11.0977C27.1426 10.8633 27.0996 10.6543 27.0137 10.4707C26.9316 10.2832 26.8066 10.1348 26.6387 10.0254C26.4707 9.91602 26.2559 9.86133 25.9941 9.86133C25.7715 9.86133 25.5801 9.91016 25.4199 10.0078C25.2598 10.1055 25.1289 10.2422 25.0273 10.418C24.9297 10.5938 24.8555 10.8008 24.8047 11.0391C24.7578 11.2734 24.7344 11.5312 24.7344 11.8125V12.0469C24.7344 12.3008 24.7695 12.5352 24.8398 12.75C24.9141 12.9648 25.0176 13.1504 25.1504 13.3066C25.2871 13.4629 25.4512 13.584 25.6426 13.6699C25.8379 13.7559 26.0586 13.7988 26.3047 13.7988C26.6094 13.7988 26.8926 13.7402 27.1543 13.623C27.4199 13.502 27.6484 13.3203 27.8398 13.0781L28.6602 13.9688C28.5273 14.1602 28.3457 14.3438 28.1152 14.5195C27.8887 14.6953 27.6152 14.8398 27.2949 14.9531C26.9746 15.0625 26.6094 15.1172 26.1992 15.1172ZM31.4141 10.0137V15H29.7266V8.66016H31.3086L31.4141 10.0137ZM31.168 11.6074H30.7109C30.7109 11.1387 30.7715 10.7168 30.8926 10.3418C31.0137 9.96289 31.1836 9.64062 31.4023 9.375C31.6211 9.10547 31.8809 8.90039 32.1816 8.75977C32.4863 8.61523 32.8262 8.54297 33.2012 8.54297C33.498 8.54297 33.7695 8.58594 34.0156 8.67188C34.2617 8.75781 34.4727 8.89453 34.6484 9.08203C34.8281 9.26953 34.9648 9.51758 35.0586 9.82617C35.1562 10.1348 35.2051 10.5117 35.2051 10.957V15H33.5059V10.9512C33.5059 10.6699 33.4668 10.4512 33.3887 10.2949C33.3105 10.1387 33.1953 10.0293 33.043 9.9668C32.8945 9.90039 32.7109 9.86719 32.4922 9.86719C32.2656 9.86719 32.0684 9.91211 31.9004 10.002C31.7363 10.0918 31.5996 10.2168 31.4902 10.377C31.3848 10.5332 31.3047 10.7168 31.25 10.9277C31.1953 11.1387 31.168 11.3652 31.168 11.6074Z" fill="white"/>
</svg>
