<svg width="86" height="22" viewBox="0 0 86 22" fill="none" xmlns="http://www.w3.org/2000/svg">
<path d="M0 11C0 4.92487 4.92487 0 11 0H75C81.0751 0 86 4.92487 86 11V11C86 17.0751 81.0751 22 75 22H11C4.92487 22 0 17.0751 0 11V11Z" fill="#FF9A3C"/>
<path d="M13.4727 6.46875H15.2246V12.1055C15.2246 12.7617 15.084 13.3145 14.8027 13.7637C14.5254 14.2129 14.1406 14.5508 13.6484 14.7773C13.1602 15.0039 12.5977 15.1172 11.9609 15.1172C11.3242 15.1172 10.7578 15.0039 10.2617 14.7773C9.76953 14.5508 9.38281 14.2129 9.10156 13.7637C8.82422 13.3145 8.68555 12.7617 8.68555 12.1055V6.46875H10.4434V12.1055C10.4434 12.4883 10.5039 12.8008 10.625 13.043C10.7461 13.2852 10.9199 13.4629 11.1465 13.5762C11.377 13.6895 11.6484 13.7461 11.9609 13.7461C12.2812 13.7461 12.5527 13.6895 12.7754 13.5762C13.002 13.4629 13.1738 13.2852 13.291 13.043C13.4121 12.8008 13.4727 12.4883 13.4727 12.1055V6.46875ZM18.2188 10.0137V15H16.5312V8.66016H18.1133L18.2188 10.0137ZM17.9727 11.6074H17.5156C17.5156 11.1387 17.5762 10.7168 17.6973 10.3418C17.8184 9.96289 17.9883 9.64062 18.207 9.375C18.4258 9.10547 18.6855 8.90039 18.9863 8.75977C19.291 8.61523 19.6309 8.54297 20.0059 8.54297C20.3027 8.54297 20.5742 8.58594 20.8203 8.67188C21.0664 8.75781 21.2773 8.89453 21.4531 9.08203C21.6328 9.26953 21.7695 9.51758 21.8633 9.82617C21.9609 10.1348 22.0098 10.5117 22.0098 10.957V15H20.3105V10.9512C20.3105 10.6699 20.2715 10.4512 20.1934 10.2949C20.1152 10.1387 20 10.0293 19.8477 9.9668C19.6992 9.90039 19.5156 9.86719 19.2969 9.86719C19.0703 9.86719 18.873 9.91211 18.7051 10.002C18.541 10.0918 18.4043 10.2168 18.2949 10.377C18.1895 10.5332 18.1094 10.7168 18.0547 10.9277C18 11.1387 17.9727 11.3652 17.9727 11.6074ZM27.0371 13.6172V6H28.7363V15H27.207L27.0371 13.6172ZM23.0293 11.9062V11.7832C23.0293 11.2988 23.084 10.8594 23.1934 10.4648C23.3027 10.0664 23.4629 9.72461 23.6738 9.43945C23.8848 9.1543 24.1445 8.93359 24.4531 8.77734C24.7617 8.62109 25.1133 8.54297 25.5078 8.54297C25.8789 8.54297 26.2031 8.62109 26.4805 8.77734C26.7617 8.93359 27 9.15625 27.1953 9.44531C27.3945 9.73047 27.5547 10.0684 27.6758 10.459C27.7969 10.8457 27.8848 11.2695 27.9395 11.7305V12C27.8848 12.4414 27.7969 12.8516 27.6758 13.2305C27.5547 13.6094 27.3945 13.9414 27.1953 14.2266C27 14.5078 26.7617 14.7266 26.4805 14.8828C26.1992 15.0391 25.8711 15.1172 25.4961 15.1172C25.1016 15.1172 24.75 15.0371 24.4414 14.877C24.1367 14.7168 23.8789 14.4922 23.668 14.2031C23.4609 13.9141 23.3027 13.5742 23.1934 13.1836C23.084 12.793 23.0293 12.3672 23.0293 11.9062ZM24.7168 11.7832V11.9062C24.7168 12.168 24.7363 12.4121 24.7754 12.6387C24.8184 12.8652 24.8867 13.0664 24.9805 13.2422C25.0781 13.4141 25.2031 13.5488 25.3555 13.6465C25.5117 13.7402 25.7012 13.7871 25.9238 13.7871C26.2129 13.7871 26.4512 13.7227 26.6387 13.5938C26.8262 13.4609 26.9688 13.2793 27.0664 13.0488C27.168 12.8184 27.2266 12.5527 27.2422 12.252V11.4844C27.2305 11.2383 27.1953 11.0176 27.1367 10.8223C27.082 10.623 27 10.4531 26.8906 10.3125C26.7852 10.1719 26.6523 10.0625 26.4922 9.98438C26.3359 9.90625 26.1504 9.86719 25.9355 9.86719C25.7168 9.86719 25.5293 9.91797 25.373 10.0195C25.2168 10.1172 25.0898 10.252 24.9922 10.4238C24.8984 10.5957 24.8281 10.7988 24.7812 11.0332C24.7383 11.2637 24.7168 11.5137 24.7168 11.7832ZM32.9727 15.1172C32.4805 15.1172 32.0391 15.0391 31.6484 14.8828C31.2578 14.7227 30.9258 14.502 30.6523 14.2207C30.3828 13.9395 30.1758 13.6133 30.0312 13.2422C29.8867 12.8672 29.8145 12.4688 29.8145 12.0469V11.8125C29.8145 11.332 29.8828 10.8926 30.0195 10.4941C30.1562 10.0957 30.3516 9.75 30.6055 9.45703C30.8633 9.16406 31.1758 8.93945 31.543 8.7832C31.9102 8.62305 32.3242 8.54297 32.7852 8.54297C33.2344 8.54297 33.6328 8.61719 33.9805 8.76562C34.3281 8.91406 34.6191 9.125 34.8535 9.39844C35.0918 9.67188 35.2715 10 35.3926 10.3828C35.5137 10.7617 35.5742 11.1836 35.5742 11.6484V12.3516H30.5352V11.2266H33.916V11.0977C33.916 10.8633 33.873 10.6543 33.7871 10.4707C33.7051 10.2832 33.5801 10.1348 33.4121 10.0254C33.2441 9.91602 33.0293 9.86133 32.7676 9.86133C32.5449 9.86133 32.3535 9.91016 32.1934 10.0078C32.0332 10.1055 31.9023 10.2422 31.8008 10.418C31.7031 10.5938 31.6289 10.8008 31.5781 11.0391C31.5312 11.2734 31.5078 11.5312 31.5078 11.8125V12.0469C31.5078 12.3008 31.543 12.5352 31.6133 12.75C31.6875 12.9648 31.791 13.1504 31.9238 13.3066C32.0605 13.4629 32.2246 13.584 32.416 13.6699C32.6113 13.7559 32.832 13.7988 33.0781 13.7988C33.3828 13.7988 33.666 13.7402 33.9277 13.623C34.1934 13.502 34.4219 13.3203 34.6133 13.0781L35.4336 13.9688C35.3008 14.1602 35.1191 14.3438 34.8887 14.5195C34.6621 14.6953 34.3887 14.8398 34.0684 14.9531C33.748 15.0625 33.3828 15.1172 32.9727 15.1172ZM38.2227 10.043V15H36.5352V8.66016H38.123L38.2227 10.043ZM40.1328 8.61914L40.1035 10.1836C40.0215 10.1719 39.9219 10.1621 39.8047 10.1543C39.6914 10.1426 39.5879 10.1367 39.4941 10.1367C39.2559 10.1367 39.0488 10.168 38.873 10.2305C38.7012 10.2891 38.5566 10.377 38.4395 10.4941C38.3262 10.6113 38.2402 10.7539 38.1816 10.9219C38.127 11.0898 38.0957 11.2812 38.0879 11.4961L37.748 11.3906C37.748 10.9805 37.7891 10.6035 37.8711 10.2598C37.9531 9.91211 38.0723 9.60938 38.2285 9.35156C38.3887 9.09375 38.584 8.89453 38.8145 8.75391C39.0449 8.61328 39.3086 8.54297 39.6055 8.54297C39.6992 8.54297 39.7949 8.55078 39.8926 8.56641C39.9902 8.57812 40.0703 8.5957 40.1328 8.61914ZM47.3398 13.5703V10.7461C47.3398 10.543 47.3066 10.3691 47.2402 10.2246C47.1738 10.0762 47.0703 9.96094 46.9297 9.87891C46.793 9.79688 46.6152 9.75586 46.3965 9.75586C46.209 9.75586 46.0469 9.78906 45.9102 9.85547C45.7734 9.91797 45.668 10.0098 45.5938 10.1309C45.5195 10.248 45.4824 10.3867 45.4824 10.5469H43.7949C43.7949 10.2773 43.8574 10.0215 43.9824 9.7793C44.1074 9.53711 44.2891 9.32422 44.5273 9.14062C44.7656 8.95312 45.0488 8.80664 45.377 8.70117C45.709 8.5957 46.0801 8.54297 46.4902 8.54297C46.9824 8.54297 47.4199 8.625 47.8027 8.78906C48.1855 8.95312 48.4863 9.19922 48.7051 9.52734C48.9277 9.85547 49.0391 10.2656 49.0391 10.7578V13.4707C49.0391 13.8184 49.0605 14.1035 49.1035 14.3262C49.1465 14.5449 49.209 14.7363 49.291 14.9004V15H47.5859C47.5039 14.8281 47.4414 14.6133 47.3984 14.3555C47.3594 14.0938 47.3398 13.832 47.3398 13.5703ZM47.5625 11.1387L47.5742 12.0938H46.6309C46.4082 12.0938 46.2148 12.1191 46.0508 12.1699C45.8867 12.2207 45.752 12.293 45.6465 12.3867C45.541 12.4766 45.4629 12.582 45.4121 12.7031C45.3652 12.8242 45.3418 12.957 45.3418 13.1016C45.3418 13.2461 45.375 13.377 45.4414 13.4941C45.5078 13.6074 45.6035 13.6973 45.7285 13.7637C45.8535 13.8262 46 13.8574 46.168 13.8574C46.4219 13.8574 46.6426 13.8066 46.8301 13.7051C47.0176 13.6035 47.1621 13.4785 47.2637 13.3301C47.3691 13.1816 47.4238 13.041 47.4277 12.9082L47.873 13.623C47.8105 13.7832 47.7246 13.9492 47.6152 14.1211C47.5098 14.293 47.375 14.4551 47.2109 14.6074C47.0469 14.7559 46.8496 14.8789 46.6191 14.9766C46.3887 15.0703 46.1152 15.1172 45.7988 15.1172C45.3965 15.1172 45.0312 15.0371 44.7031 14.877C44.3789 14.7129 44.1211 14.4883 43.9297 14.2031C43.7422 13.9141 43.6484 13.5859 43.6484 13.2188C43.6484 12.8867 43.7109 12.5918 43.8359 12.334C43.9609 12.0762 44.1445 11.8594 44.3867 11.6836C44.6328 11.5039 44.9395 11.3691 45.3066 11.2793C45.6738 11.1855 46.0996 11.1387 46.584 11.1387H47.5625ZM52.0273 10.043V15H50.3398V8.66016H51.9277L52.0273 10.043ZM53.9375 8.61914L53.9082 10.1836C53.8262 10.1719 53.7266 10.1621 53.6094 10.1543C53.4961 10.1426 53.3926 10.1367 53.2988 10.1367C53.0605 10.1367 52.8535 10.168 52.6777 10.2305C52.5059 10.2891 52.3613 10.377 52.2441 10.4941C52.1309 10.6113 52.0449 10.7539 51.9863 10.9219C51.9316 11.0898 51.9004 11.2812 51.8926 11.4961L51.5527 11.3906C51.5527 10.9805 51.5938 10.6035 51.6758 10.2598C51.7578 9.91211 51.877 9.60938 52.0332 9.35156C52.1934 9.09375 52.3887 8.89453 52.6191 8.75391C52.8496 8.61328 53.1133 8.54297 53.4102 8.54297C53.5039 8.54297 53.5996 8.55078 53.6973 8.56641C53.7949 8.57812 53.875 8.5957 53.9375 8.61914ZM54.7344 6H56.4219V13.5469L56.252 15H54.7344V6ZM60.4355 11.7656V11.8887C60.4355 12.3613 60.3848 12.7949 60.2832 13.1895C60.1855 13.584 60.0332 13.9258 59.8262 14.2148C59.6191 14.5 59.3613 14.7227 59.0527 14.8828C58.748 15.0391 58.3887 15.1172 57.9746 15.1172C57.5879 15.1172 57.252 15.0391 56.9668 14.8828C56.6855 14.7266 56.4492 14.5059 56.2578 14.2207C56.0664 13.9355 55.9121 13.6016 55.7949 13.2188C55.6777 12.8359 55.5898 12.418 55.5312 11.9648V11.6953C55.5898 11.2422 55.6777 10.8242 55.7949 10.4414C55.9121 10.0586 56.0664 9.72461 56.2578 9.43945C56.4492 9.1543 56.6855 8.93359 56.9668 8.77734C57.248 8.62109 57.5801 8.54297 57.9629 8.54297C58.3809 8.54297 58.7441 8.62305 59.0527 8.7832C59.3652 8.93945 59.623 9.16211 59.8262 9.45117C60.0332 9.73633 60.1855 10.0762 60.2832 10.4707C60.3848 10.8613 60.4355 11.293 60.4355 11.7656ZM58.748 11.8887V11.7656C58.748 11.5078 58.7285 11.2656 58.6895 11.0391C58.6543 10.8086 58.5918 10.6074 58.502 10.4355C58.4121 10.2598 58.2891 10.1211 58.1328 10.0195C57.9805 9.91797 57.7832 9.86719 57.541 9.86719C57.3105 9.86719 57.1152 9.90625 56.9551 9.98438C56.7949 10.0625 56.6621 10.1719 56.5566 10.3125C56.4551 10.4531 56.3789 10.6211 56.3281 10.8164C56.2773 11.0078 56.2461 11.2188 56.2344 11.4492V12.2168C56.2461 12.5254 56.2969 12.7988 56.3867 13.0371C56.4805 13.2715 56.6211 13.457 56.8086 13.5938C57 13.7266 57.248 13.793 57.5527 13.793C57.791 13.793 57.9883 13.7461 58.1445 13.6523C58.3008 13.5586 58.4219 13.4258 58.5078 13.2539C58.5977 13.082 58.6602 12.8809 58.6953 12.6504C58.7305 12.416 58.748 12.1621 58.748 11.8887ZM64.4023 15.1172C63.9102 15.1172 63.4688 15.0391 63.0781 14.8828C62.6875 14.7227 62.3555 14.502 62.082 14.2207C61.8125 13.9395 61.6055 13.6133 61.4609 13.2422C61.3164 12.8672 61.2441 12.4688 61.2441 12.0469V11.8125C61.2441 11.332 61.3125 10.8926 61.4492 10.4941C61.5859 10.0957 61.7812 9.75 62.0352 9.45703C62.293 9.16406 62.6055 8.93945 62.9727 8.7832C63.3398 8.62305 63.7539 8.54297 64.2148 8.54297C64.6641 8.54297 65.0625 8.61719 65.4102 8.76562C65.7578 8.91406 66.0488 9.125 66.2832 9.39844C66.5215 9.67188 66.7012 10 66.8223 10.3828C66.9434 10.7617 67.0039 11.1836 67.0039 11.6484V12.3516H61.9648V11.2266H65.3457V11.0977C65.3457 10.8633 65.3027 10.6543 65.2168 10.4707C65.1348 10.2832 65.0098 10.1348 64.8418 10.0254C64.6738 9.91602 64.459 9.86133 64.1973 9.86133C63.9746 9.86133 63.7832 9.91016 63.623 10.0078C63.4629 10.1055 63.332 10.2422 63.2305 10.418C63.1328 10.5938 63.0586 10.8008 63.0078 11.0391C62.9609 11.2734 62.9375 11.5312 62.9375 11.8125V12.0469C62.9375 12.3008 62.9727 12.5352 63.043 12.75C63.1172 12.9648 63.2207 13.1504 63.3535 13.3066C63.4902 13.4629 63.6543 13.584 63.8457 13.6699C64.041 13.7559 64.2617 13.7988 64.5078 13.7988C64.8125 13.7988 65.0957 13.7402 65.3574 13.623C65.623 13.502 65.8516 13.3203 66.043 13.0781L66.8633 13.9688C66.7305 14.1602 66.5488 14.3438 66.3184 14.5195C66.0918 14.6953 65.8184 14.8398 65.498 14.9531C65.1777 15.0625 64.8125 15.1172 64.4023 15.1172ZM69.7461 8.66016V15H68.0527V8.66016H69.7461ZM67.9473 7.00781C67.9473 6.76172 68.0332 6.55859 68.2051 6.39844C68.377 6.23828 68.6074 6.1582 68.8965 6.1582C69.1816 6.1582 69.4102 6.23828 69.582 6.39844C69.7578 6.55859 69.8457 6.76172 69.8457 7.00781C69.8457 7.25391 69.7578 7.45703 69.582 7.61719C69.4102 7.77734 69.1816 7.85742 68.8965 7.85742C68.6074 7.85742 68.377 7.77734 68.2051 7.61719C68.0332 7.45703 67.9473 7.25391 67.9473 7.00781ZM74.8848 13.6172V6H76.584V15H75.0547L74.8848 13.6172ZM70.877 11.9062V11.7832C70.877 11.2988 70.9316 10.8594 71.041 10.4648C71.1504 10.0664 71.3105 9.72461 71.5215 9.43945C71.7324 9.1543 71.9922 8.93359 72.3008 8.77734C72.6094 8.62109 72.9609 8.54297 73.3555 8.54297C73.7266 8.54297 74.0508 8.62109 74.3281 8.77734C74.6094 8.93359 74.8477 9.15625 75.043 9.44531C75.2422 9.73047 75.4023 10.0684 75.5234 10.459C75.6445 10.8457 75.7324 11.2695 75.7871 11.7305V12C75.7324 12.4414 75.6445 12.8516 75.5234 13.2305C75.4023 13.6094 75.2422 13.9414 75.043 14.2266C74.8477 14.5078 74.6094 14.7266 74.3281 14.8828C74.0469 15.0391 73.7188 15.1172 73.3438 15.1172C72.9492 15.1172 72.5977 15.0371 72.2891 14.877C71.9844 14.7168 71.7266 14.4922 71.5156 14.2031C71.3086 13.9141 71.1504 13.5742 71.041 13.1836C70.9316 12.793 70.877 12.3672 70.877 11.9062ZM72.5645 11.7832V11.9062C72.5645 12.168 72.584 12.4121 72.623 12.6387C72.666 12.8652 72.7344 13.0664 72.8281 13.2422C72.9258 13.4141 73.0508 13.5488 73.2031 13.6465C73.3594 13.7402 73.5488 13.7871 73.7715 13.7871C74.0605 13.7871 74.2988 13.7227 74.4863 13.5938C74.6738 13.4609 74.8164 13.2793 74.9141 13.0488C75.0156 12.8184 75.0742 12.5527 75.0898 12.252V11.4844C75.0781 11.2383 75.043 11.0176 74.9844 10.8223C74.9297 10.623 74.8477 10.4531 74.7383 10.3125C74.6328 10.1719 74.5 10.0625 74.3398 9.98438C74.1836 9.90625 73.998 9.86719 73.7832 9.86719C73.5645 9.86719 73.377 9.91797 73.2207 10.0195C73.0645 10.1172 72.9375 10.252 72.8398 10.4238C72.7461 10.5957 72.6758 10.7988 72.6289 11.0332C72.5859 11.2637 72.5645 11.5137 72.5645 11.7832Z" fill="#080707"/>
</svg>
