<svg width="53" height="22" viewBox="0 0 53 22" fill="none" xmlns="http://www.w3.org/2000/svg">
<path d="M0 11C0 4.92487 4.92487 0 11 0H42C48.0751 0 53 4.92487 53 11V11C53 17.0751 48.0751 22 42 22H11C4.92487 22 0 17.0751 0 11V11Z" fill="#ECEBEA"/>
<path d="M14.2461 13.6289V15H9.95117V13.6289H14.2461ZM10.5195 6.46875V15H8.76172V6.46875H10.5195ZM18.7578 13.4824V8.66016H20.4453V15H18.8574L18.7578 13.4824ZM18.9453 12.1816L19.4434 12.1699C19.4434 12.5918 19.3945 12.9844 19.2969 13.3477C19.1992 13.707 19.0527 14.0195 18.8574 14.2852C18.6621 14.5469 18.416 14.752 18.1191 14.9004C17.8223 15.0449 17.4727 15.1172 17.0703 15.1172C16.7617 15.1172 16.4766 15.0742 16.2148 14.9883C15.957 14.8984 15.7344 14.7598 15.5469 14.5723C15.3633 14.3809 15.2188 14.1367 15.1133 13.8398C15.0117 13.5391 14.9609 13.1777 14.9609 12.7559V8.66016H16.6484V12.7676C16.6484 12.9551 16.6699 13.1133 16.7129 13.2422C16.7598 13.3711 16.8242 13.4766 16.9062 13.5586C16.9883 13.6406 17.084 13.6992 17.1934 13.7344C17.3066 13.7695 17.4316 13.7871 17.5684 13.7871C17.916 13.7871 18.1895 13.7168 18.3887 13.5762C18.5918 13.4355 18.7344 13.2441 18.8164 13.002C18.9023 12.7559 18.9453 12.4824 18.9453 12.1816ZM23.4219 5.99414V15H21.7344V5.99414H23.4219ZM27.418 8.66016L24.6641 11.8008L23.1875 13.2949L22.5723 12.0762L23.7441 10.5879L25.3906 8.66016H27.418ZM25.666 15L23.791 12.0703L24.957 11.0508L27.6113 15H25.666ZM29.832 5.99414V15H28.1445V5.99414H29.832ZM33.8281 8.66016L31.0742 11.8008L29.5977 13.2949L28.9824 12.0762L30.1543 10.5879L31.8008 8.66016H33.8281ZM32.0762 15L30.2012 12.0703L31.3672 11.0508L34.0215 15H32.0762ZM37.3555 15.1172C36.8633 15.1172 36.4219 15.0391 36.0312 14.8828C35.6406 14.7227 35.3086 14.502 35.0352 14.2207C34.7656 13.9395 34.5586 13.6133 34.4141 13.2422C34.2695 12.8672 34.1973 12.4688 34.1973 12.0469V11.8125C34.1973 11.332 34.2656 10.8926 34.4023 10.4941C34.5391 10.0957 34.7344 9.75 34.9883 9.45703C35.2461 9.16406 35.5586 8.93945 35.9258 8.7832C36.293 8.62305 36.707 8.54297 37.168 8.54297C37.6172 8.54297 38.0156 8.61719 38.3633 8.76562C38.7109 8.91406 39.002 9.125 39.2363 9.39844C39.4746 9.67188 39.6543 10 39.7754 10.3828C39.8965 10.7617 39.957 11.1836 39.957 11.6484V12.3516H34.918V11.2266H38.2988V11.0977C38.2988 10.8633 38.2559 10.6543 38.1699 10.4707C38.0879 10.2832 37.9629 10.1348 37.7949 10.0254C37.627 9.91602 37.4121 9.86133 37.1504 9.86133C36.9277 9.86133 36.7363 9.91016 36.5762 10.0078C36.416 10.1055 36.2852 10.2422 36.1836 10.418C36.0859 10.5938 36.0117 10.8008 35.9609 11.0391C35.9141 11.2734 35.8906 11.5312 35.8906 11.8125V12.0469C35.8906 12.3008 35.9258 12.5352 35.9961 12.75C36.0703 12.9648 36.1738 13.1504 36.3066 13.3066C36.4434 13.4629 36.6074 13.584 36.7988 13.6699C36.9941 13.7559 37.2148 13.7988 37.4609 13.7988C37.7656 13.7988 38.0488 13.7402 38.3105 13.623C38.5762 13.502 38.8047 13.3203 38.9961 13.0781L39.8164 13.9688C39.6836 14.1602 39.502 14.3438 39.2715 14.5195C39.0449 14.6953 38.7715 14.8398 38.4512 14.9531C38.1309 15.0625 37.7656 15.1172 37.3555 15.1172ZM44.0234 8.66016V9.85547H40.332V8.66016H44.0234ZM41.2461 7.0957H42.9336V13.0898C42.9336 13.2734 42.957 13.4141 43.0039 13.5117C43.0547 13.6094 43.1289 13.6777 43.2266 13.7168C43.3242 13.752 43.4473 13.7695 43.5957 13.7695C43.7012 13.7695 43.7949 13.7656 43.877 13.7578C43.9629 13.7461 44.0352 13.7344 44.0938 13.7227L44.0996 14.9648C43.9551 15.0117 43.7988 15.0488 43.6309 15.0762C43.4629 15.1035 43.2773 15.1172 43.0742 15.1172C42.7031 15.1172 42.3789 15.0566 42.1016 14.9355C41.8281 14.8105 41.6172 14.6113 41.4688 14.3379C41.3203 14.0645 41.2461 13.7051 41.2461 13.2598V7.0957Z" fill="#080707"/>
</svg>
