<svg width="58" height="22" viewBox="0 0 58 22" fill="none" xmlns="http://www.w3.org/2000/svg">
<path d="M0 11C0 4.92487 4.92487 0 11 0H47C53.0751 0 58 4.92487 58 11V11C58 17.0751 53.0751 22 47 22H11C4.92487 22 0 17.0751 0 11V11Z" fill="#FF9A3C"/>
<path d="M12.1016 11.2559H9.91016L9.89844 10.0488H11.7383C12.0625 10.0488 12.3281 10.0078 12.5352 9.92578C12.7422 9.83984 12.8965 9.7168 12.998 9.55664C13.1035 9.39258 13.1562 9.19336 13.1562 8.95898C13.1562 8.69336 13.1055 8.47852 13.0039 8.31445C12.9062 8.15039 12.752 8.03125 12.541 7.95703C12.334 7.88281 12.0664 7.8457 11.7383 7.8457H10.5195V15H8.76172V6.46875H11.7383C12.2344 6.46875 12.6777 6.51562 13.0684 6.60938C13.4629 6.70312 13.7969 6.8457 14.0703 7.03711C14.3438 7.22852 14.5527 7.4707 14.6973 7.76367C14.8418 8.05273 14.9141 8.39648 14.9141 8.79492C14.9141 9.14648 14.834 9.4707 14.6738 9.76758C14.5176 10.0645 14.2695 10.3066 13.9297 10.4941C13.5938 10.6816 13.1543 10.7852 12.6113 10.8047L12.1016 11.2559ZM12.0254 15H9.42969L10.1152 13.6289H12.0254C12.334 13.6289 12.5859 13.5801 12.7812 13.4824C12.9766 13.3809 13.1211 13.2441 13.2148 13.0723C13.3086 12.9004 13.3555 12.7031 13.3555 12.4805C13.3555 12.2305 13.3125 12.0137 13.2266 11.8301C13.1445 11.6465 13.0117 11.5059 12.8281 11.4082C12.6445 11.3066 12.4023 11.2559 12.1016 11.2559H10.4082L10.4199 10.0488H12.5293L12.9336 10.5234C13.4531 10.5156 13.8711 10.6074 14.1875 10.7988C14.5078 10.9863 14.7402 11.2305 14.8848 11.5312C15.0332 11.832 15.1074 12.1543 15.1074 12.498C15.1074 13.0449 14.9883 13.5059 14.75 13.8809C14.5117 14.252 14.1621 14.5312 13.7012 14.7188C13.2441 14.9062 12.6855 15 12.0254 15ZM19.2383 15.1172C18.7461 15.1172 18.3047 15.0391 17.9141 14.8828C17.5234 14.7227 17.1914 14.502 16.918 14.2207C16.6484 13.9395 16.4414 13.6133 16.2969 13.2422C16.1523 12.8672 16.0801 12.4688 16.0801 12.0469V11.8125C16.0801 11.332 16.1484 10.8926 16.2852 10.4941C16.4219 10.0957 16.6172 9.75 16.8711 9.45703C17.1289 9.16406 17.4414 8.93945 17.8086 8.7832C18.1758 8.62305 18.5898 8.54297 19.0508 8.54297C19.5 8.54297 19.8984 8.61719 20.2461 8.76562C20.5938 8.91406 20.8848 9.125 21.1191 9.39844C21.3574 9.67188 21.5371 10 21.6582 10.3828C21.7793 10.7617 21.8398 11.1836 21.8398 11.6484V12.3516H16.8008V11.2266H20.1816V11.0977C20.1816 10.8633 20.1387 10.6543 20.0527 10.4707C19.9707 10.2832 19.8457 10.1348 19.6777 10.0254C19.5098 9.91602 19.2949 9.86133 19.0332 9.86133C18.8105 9.86133 18.6191 9.91016 18.459 10.0078C18.2988 10.1055 18.168 10.2422 18.0664 10.418C17.9688 10.5938 17.8945 10.8008 17.8438 11.0391C17.7969 11.2734 17.7734 11.5312 17.7734 11.8125V12.0469C17.7734 12.3008 17.8086 12.5352 17.8789 12.75C17.9531 12.9648 18.0566 13.1504 18.1895 13.3066C18.3262 13.4629 18.4902 13.584 18.6816 13.6699C18.877 13.7559 19.0977 13.7988 19.3438 13.7988C19.6484 13.7988 19.9316 13.7402 20.1934 13.623C20.459 13.502 20.6875 13.3203 20.8789 13.0781L21.6992 13.9688C21.5664 14.1602 21.3848 14.3438 21.1543 14.5195C20.9277 14.6953 20.6543 14.8398 20.334 14.9531C20.0137 15.0625 19.6484 15.1172 19.2383 15.1172ZM26.2285 13.248C26.2285 13.127 26.1934 13.0176 26.123 12.9199C26.0527 12.8223 25.9219 12.7324 25.7305 12.6504C25.543 12.5645 25.2715 12.4863 24.916 12.416C24.5957 12.3457 24.2969 12.2578 24.0195 12.1523C23.7461 12.043 23.5078 11.9121 23.3047 11.7598C23.1055 11.6074 22.9492 11.4277 22.8359 11.2207C22.7227 11.0098 22.666 10.7695 22.666 10.5C22.666 10.2344 22.7227 9.98438 22.8359 9.75C22.9531 9.51562 23.1191 9.30859 23.334 9.12891C23.5527 8.94531 23.8184 8.80273 24.1309 8.70117C24.4473 8.5957 24.8027 8.54297 25.1973 8.54297C25.748 8.54297 26.2207 8.63086 26.6152 8.80664C27.0137 8.98242 27.3184 9.22461 27.5293 9.5332C27.7441 9.83789 27.8516 10.1855 27.8516 10.5762H26.1641C26.1641 10.4121 26.1289 10.2656 26.0586 10.1367C25.9922 10.0039 25.8867 9.90039 25.7422 9.82617C25.6016 9.74805 25.418 9.70898 25.1914 9.70898C25.0039 9.70898 24.8418 9.74219 24.7051 9.80859C24.5684 9.87109 24.4629 9.95703 24.3887 10.0664C24.3184 10.1719 24.2832 10.2891 24.2832 10.418C24.2832 10.5156 24.3027 10.6035 24.3418 10.6816C24.3848 10.7559 24.4531 10.8242 24.5469 10.8867C24.6406 10.9492 24.7617 11.0078 24.9102 11.0625C25.0625 11.1133 25.25 11.1602 25.4727 11.2031C25.9297 11.2969 26.3379 11.4199 26.6973 11.5723C27.0566 11.7207 27.3418 11.9238 27.5527 12.1816C27.7637 12.4355 27.8691 12.7695 27.8691 13.1836C27.8691 13.4648 27.8066 13.7227 27.6816 13.957C27.5566 14.1914 27.377 14.3965 27.1426 14.5723C26.9082 14.7441 26.627 14.8789 26.2988 14.9766C25.9746 15.0703 25.6094 15.1172 25.2031 15.1172C24.6133 15.1172 24.1133 15.0117 23.7031 14.8008C23.2969 14.5898 22.9883 14.3223 22.7773 13.998C22.5703 13.6699 22.4668 13.334 22.4668 12.9902H24.0664C24.0742 13.2207 24.1328 13.4062 24.2422 13.5469C24.3555 13.6875 24.498 13.7891 24.6699 13.8516C24.8457 13.9141 25.0352 13.9453 25.2383 13.9453C25.457 13.9453 25.6387 13.916 25.7832 13.8574C25.9277 13.7949 26.0371 13.7129 26.1113 13.6113C26.1895 13.5059 26.2285 13.3848 26.2285 13.248ZM31.1211 13.7695L32.5273 8.66016H34.291L32.1523 15H31.0859L31.1211 13.7695ZM30.1543 8.66016L31.5664 13.7754L31.5957 15H30.5234L28.3848 8.66016H30.1543ZM38.375 13.5703V10.7461C38.375 10.543 38.3418 10.3691 38.2754 10.2246C38.209 10.0762 38.1055 9.96094 37.9648 9.87891C37.8281 9.79688 37.6504 9.75586 37.4316 9.75586C37.2441 9.75586 37.082 9.78906 36.9453 9.85547C36.8086 9.91797 36.7031 10.0098 36.6289 10.1309C36.5547 10.248 36.5176 10.3867 36.5176 10.5469H34.8301C34.8301 10.2773 34.8926 10.0215 35.0176 9.7793C35.1426 9.53711 35.3242 9.32422 35.5625 9.14062C35.8008 8.95312 36.084 8.80664 36.4121 8.70117C36.7441 8.5957 37.1152 8.54297 37.5254 8.54297C38.0176 8.54297 38.4551 8.625 38.8379 8.78906C39.2207 8.95312 39.5215 9.19922 39.7402 9.52734C39.9629 9.85547 40.0742 10.2656 40.0742 10.7578V13.4707C40.0742 13.8184 40.0957 14.1035 40.1387 14.3262C40.1816 14.5449 40.2441 14.7363 40.3262 14.9004V15H38.6211C38.5391 14.8281 38.4766 14.6133 38.4336 14.3555C38.3945 14.0938 38.375 13.832 38.375 13.5703ZM38.5977 11.1387L38.6094 12.0938H37.666C37.4434 12.0938 37.25 12.1191 37.0859 12.1699C36.9219 12.2207 36.7871 12.293 36.6816 12.3867C36.5762 12.4766 36.498 12.582 36.4473 12.7031C36.4004 12.8242 36.377 12.957 36.377 13.1016C36.377 13.2461 36.4102 13.377 36.4766 13.4941C36.543 13.6074 36.6387 13.6973 36.7637 13.7637C36.8887 13.8262 37.0352 13.8574 37.2031 13.8574C37.457 13.8574 37.6777 13.8066 37.8652 13.7051C38.0527 13.6035 38.1973 13.4785 38.2988 13.3301C38.4043 13.1816 38.459 13.041 38.4629 12.9082L38.9082 13.623C38.8457 13.7832 38.7598 13.9492 38.6504 14.1211C38.5449 14.293 38.4102 14.4551 38.2461 14.6074C38.082 14.7559 37.8848 14.8789 37.6543 14.9766C37.4238 15.0703 37.1504 15.1172 36.834 15.1172C36.4316 15.1172 36.0664 15.0371 35.7383 14.877C35.4141 14.7129 35.1562 14.4883 34.9648 14.2031C34.7773 13.9141 34.6836 13.5859 34.6836 13.2188C34.6836 12.8867 34.7461 12.5918 34.8711 12.334C34.9961 12.0762 35.1797 11.8594 35.4219 11.6836C35.668 11.5039 35.9746 11.3691 36.3418 11.2793C36.709 11.1855 37.1348 11.1387 37.6191 11.1387H38.5977ZM43.0625 10.043V15H41.375V8.66016H42.9629L43.0625 10.043ZM44.9727 8.61914L44.9434 10.1836C44.8613 10.1719 44.7617 10.1621 44.6445 10.1543C44.5312 10.1426 44.4277 10.1367 44.334 10.1367C44.0957 10.1367 43.8887 10.168 43.7129 10.2305C43.541 10.2891 43.3965 10.377 43.2793 10.4941C43.166 10.6113 43.0801 10.7539 43.0215 10.9219C42.9668 11.0898 42.9355 11.2812 42.9277 11.4961L42.5879 11.3906C42.5879 10.9805 42.6289 10.6035 42.7109 10.2598C42.793 9.91211 42.9121 9.60938 43.0684 9.35156C43.2285 9.09375 43.4238 8.89453 43.6543 8.75391C43.8848 8.61328 44.1484 8.54297 44.4453 8.54297C44.5391 8.54297 44.6348 8.55078 44.7324 8.56641C44.8301 8.57812 44.9102 8.5957 44.9727 8.61914ZM49.168 8.66016V9.85547H45.4766V8.66016H49.168ZM46.3906 7.0957H48.0781V13.0898C48.0781 13.2734 48.1016 13.4141 48.1484 13.5117C48.1992 13.6094 48.2734 13.6777 48.3711 13.7168C48.4688 13.752 48.5918 13.7695 48.7402 13.7695C48.8457 13.7695 48.9395 13.7656 49.0215 13.7578C49.1074 13.7461 49.1797 13.7344 49.2383 13.7227L49.2441 14.9648C49.0996 15.0117 48.9434 15.0488 48.7754 15.0762C48.6074 15.1035 48.4219 15.1172 48.2188 15.1172C47.8477 15.1172 47.5234 15.0566 47.2461 14.9355C46.9727 14.8105 46.7617 14.6113 46.6133 14.3379C46.4648 14.0645 46.3906 13.7051 46.3906 13.2598V7.0957Z" fill="#080707"/>
</svg>
