<svg id="ApplicationSuccess" width="48" height="48" viewBox="0 0 48 48" fill="none" xmlns="http://www.w3.org/2000/svg">
<path d="M48 24C48 37.2548 37.2548 48 24 48C10.7452 48 0 37.2548 0 24C0 10.7452 10.7452 0 24 0C37.2548 0 48 10.7452 48 24Z" fill="#CCF1D6"/>
<path fill-rule="evenodd" clip-rule="evenodd" d="M34.7627 15.4259C35.5216 16.0681 35.6162 17.2038 34.9741 17.9627L21.7741 33.5627C21.4489 33.947 20.9777 34.1776 20.4748 34.1985C19.9719 34.2194 19.4831 34.0288 19.1272 33.6728L11.9272 26.4728C11.2243 25.7699 11.2243 24.6302 11.9272 23.9272C12.6302 23.2243 13.7699 23.2243 14.4728 23.9272L20.2895 29.744L32.2259 15.6373C32.868 14.8785 34.0038 14.7838 34.7627 15.4259Z" fill="#06893A"/>
<path fill-rule="evenodd" clip-rule="evenodd" d="M24 44.8C35.4875 44.8 44.8 35.4875 44.8 24C44.8 12.5125 35.4875 3.2 24 3.2C12.5125 3.2 3.2 12.5125 3.2 24C3.2 35.4875 12.5125 44.8 24 44.8ZM24 48C37.2548 48 48 37.2548 48 24C48 10.7452 37.2548 0 24 0C10.7452 0 0 10.7452 0 24C0 37.2548 10.7452 48 24 48Z" fill="#06893A"/>
</svg>
